<?xml version="1.0" standalone="no"?><!DOCTYPE svg PUBLIC "-//W3C//DTD SVG 1.1//EN" "http://www.w3.org/Graphics/SVG/1.1/DTD/svg11.dtd"><svg t="1732264623414" class="icon" viewBox="0 0 1024 1024" version="1.1" xmlns="http://www.w3.org/2000/svg" p-id="1512" xmlns:xlink="http://www.w3.org/1999/xlink" width="280" height="280"><path d="M512 512m-512 0a512 512 0 1 0 1024 0 512 512 0 1 0-1024 0Z" fill="#FFC61B" p-id="1513"></path><path d="M1024 512c0-1.82-0.052-3.628-0.068-5.444l-238.9-238.898-272.056 297.032-274.7 190.888 268.354 268.354c1.792 0.018 3.576 0.068 5.376 0.068C794.768 1024 1024 794.768 1024 512z" fill="#EAA22F" p-id="1514"></path><path d="M757.08 768H266.916c-21.738 0-39.364-17.622-39.364-39.364V295.36c0-21.738 17.622-39.36 39.364-39.36H757.08c21.738 0 39.364 17.622 39.364 39.36v433.276c0 21.742-17.622 39.364-39.364 39.364z" fill="#FFFFFF" p-id="1515"></path><path d="M757.08 256H512v512h245.08c21.738 0 39.364-17.622 39.364-39.364V295.364c0-21.742-17.622-39.364-39.364-39.364z" fill="#D0D1D3" p-id="1516"></path><path d="M796.444 295.364c0-21.738-17.622-39.364-39.364-39.364H266.916c-21.738 0-39.36 17.622-39.36 39.364v41.488h568.888v-41.488z" fill="#386895" p-id="1517"></path><path d="M796.444 295.364c0-21.738-17.622-39.364-39.364-39.364H512v80.852h284.444v-41.488z" fill="#273B7A" p-id="1518"></path><path d="M227.976 734.098c2.666 19.15 19.056 33.902 38.94 33.902H757.08c19.884 0 36.274-14.756 38.94-33.902H227.976z" fill="#808183" p-id="1519"></path><path d="M512 734.098V768h245.08c19.884 0 36.274-14.756 38.94-33.902H512z" fill="#59595B" p-id="1520"></path><path d="M746.452 317.198H277.548a14.656 14.656 0 0 1 0-29.308h468.902a14.656 14.656 0 0 1 14.654 14.654 14.652 14.652 0 0 1-14.652 14.654z" fill="#D0D1D3" p-id="1521"></path><path d="M746.452 287.892H512v29.306h234.452a14.654 14.654 0 0 0 0-29.306z" fill="#A6A8AA" p-id="1522"></path><path d="M296.512 445.092c-4.762 0-8.62 3.858-8.62 8.62s3.858 8.62 8.62 8.62H512v-17.24H296.512z" fill="#FEE187" p-id="1523"></path><path d="M727.488 445.092H512v17.24h215.488c4.762 0 8.62-3.858 8.62-8.62s-3.858-8.62-8.62-8.62z" fill="#EAA22F" p-id="1524"></path><path d="M296.512 516.92c-4.762 0-8.62 3.858-8.62 8.62s3.858 8.62 8.62 8.62H512v-17.24H296.512z" fill="#FEE187" p-id="1525"></path><path d="M727.488 516.92H512v17.24h215.488c4.762 0 8.62-3.858 8.62-8.62s-3.858-8.62-8.62-8.62z" fill="#EAA22F" p-id="1526"></path><path d="M296.512 588.752c-4.762 0-8.62 3.858-8.62 8.62s3.858 8.62 8.62 8.62H512v-17.24H296.512z" fill="#FEE187" p-id="1527"></path><path d="M727.488 588.752H512v17.24h215.488c4.762 0 8.62-3.858 8.62-8.62s-3.858-8.62-8.62-8.62z" fill="#EAA22F" p-id="1528"></path><path d="M727.488 677.82H296.512c-4.762 0-8.62-3.858-8.62-8.62s3.858-8.62 8.62-8.62h430.976c4.762 0 8.62 3.858 8.62 8.62s-3.858 8.62-8.62 8.62z" fill="#FEE187" p-id="1529"></path><path d="M727.488 660.58H512v17.24h215.488c4.762 0 8.62-3.858 8.62-8.62s-3.858-8.62-8.62-8.62z" fill="#EAA22F" p-id="1530"></path><path d="M476.074 436.838h179.562v35.916h-179.562z" fill="#E09112" p-id="1531"></path><path d="M512 436.838h143.656v35.916H512z" fill="#FF5419" p-id="1532"></path><path d="M332.438 508.656H512v35.916h-179.562z" fill="#E09112" p-id="1533"></path><path d="M476.074 508.656h179.562v35.916h-179.562z" fill="#D35933" p-id="1534"></path><path d="M512 508.656h143.656v35.916H512z" fill="#B54324" p-id="1535"></path><path d="M404.256 436.838h35.916v35.916h-35.916zM332.438 652.326h143.66v35.916h-143.66z" fill="#FFC61B" p-id="1536"></path><path d="M332.438 436.838h71.828v35.916h-71.828z" fill="#FF5419" p-id="1537"></path><path d="M613.4 578.336h23.218v35.916H613.4z" fill="#FFC61B" p-id="1538"></path><path d="M332.438 578.336H613.4v35.916H332.438z" fill="#FF5419" p-id="1539"></path><path d="M512 578.336h101.394v35.916H512z" fill="#C92F00" p-id="1540"></path><path d="M565.872 709.712a8.62 8.62 0 0 1-8.62-8.62V421.82a8.62 8.62 0 0 1 8.62-8.62 8.62 8.62 0 0 1 8.62 8.62v279.272a8.62 8.62 0 0 1-8.62 8.62z" fill="#38C6D9" p-id="1541"></path><path d="M594.696 409.204l-23.932 15.954a8.82 8.82 0 0 1-9.788 0l-23.932-15.954a8.826 8.826 0 0 1-3.928-7.34v-30.126a8.824 8.824 0 0 1 8.822-8.822H589.8a8.824 8.824 0 0 1 8.822 8.822v30.126a8.814 8.814 0 0 1-3.926 7.34z" fill="#71E2EF" p-id="1542"></path></svg>